<!--?xml version="1.0" standalone="no"?-->
              <svg id="sw-js-blob-svg" viewBox="0 0 100 100" xmlns="http://www.w3.org/2000/svg" version="1.1">
                    <defs> 
                        <linearGradient id="sw-gradient" x1="0" x2="1" y1="1" y2="0">
                            <stop id="stop1" stop-color="rgba(198.536, 198.536, 198.536, 0.3)" offset="0%"></stop>
                            <stop id="stop2" stop-color="rgba(255, 255, 255, 0)" offset="100%"></stop>
                        </linearGradient>
                    </defs>
                <path fill="url(#sw-gradient)" d="M13.6,-18.4C18,-12.5,22.2,-8.6,26.4,-2.1C30.7,4.5,35,13.6,31.9,17.9C28.7,22.2,18.3,21.8,10.3,21.8C2.4,21.9,-3,22.5,-7.9,21C-12.7,19.5,-17,15.9,-22.2,10.9C-27.3,5.9,-33.3,-0.5,-33.8,-7.4C-34.4,-14.4,-29.4,-21.8,-22.9,-27.3C-16.4,-32.8,-8.2,-36.3,-1.8,-34.2C4.6,-32.1,9.2,-24.3,13.6,-18.4Z" width="100%" height="100%" transform="translate(50 50)" stroke-width="0" style="transition: all 0.3s ease 0s;" stroke="url(#sw-gradient)"></path>
              </svg>