<!--?xml version="1.0" standalone="no"?-->
              <svg id="sw-js-blob-svg" viewBox="0 0 100 100" xmlns="http://www.w3.org/2000/svg" version="1.1">
                    <defs> 
                        <linearGradient id="sw-gradient" x1="0" x2="1" y1="1" y2="0">
                            <stop id="stop1" stop-color="rgba(198.536, 198.536, 198.536, 0.3)" offset="0%"></stop>
                            <stop id="stop2" stop-color="rgba(255, 255, 255, 0)" offset="100%"></stop>
                        </linearGradient>
                    </defs>
                <path fill="url(#sw-gradient)" d="M23.5,-34.6C30.7,-31.9,37,-25.8,37.6,-18.8C38.3,-11.8,33.3,-3.9,31,3.7C28.7,11.3,29.1,18.4,25.8,22.4C22.4,26.4,15.3,27.1,8.5,29.2C1.7,31.2,-4.7,34.6,-12.1,35.2C-19.5,35.7,-27.8,33.5,-30.8,27.9C-33.8,22.2,-31.5,13.2,-29.5,6.2C-27.5,-0.9,-25.8,-6,-25.4,-13.6C-25,-21.2,-25.9,-31.4,-21.9,-35.6C-17.8,-39.8,-8.9,-37.9,-0.4,-37.3C8.1,-36.7,16.3,-37.4,23.5,-34.6Z" width="100%" height="100%" transform="translate(50 50)" stroke-width="0" style="transition: all 0.3s ease 0s;" stroke="url(#sw-gradient)"></path>
              </svg>